<mxfile host="app.diagrams.net" modified="2023-12-08T21:05:49.224Z" agent="Mozilla/5.0 (Windows NT 10.0; Win64; x64) AppleWebKit/537.36 (KHTML, like Gecko) Chrome/119.0.0.0 Safari/537.36" etag="RdPJboCk1b5IJnJbJ9ZR" version="22.1.7" type="device">
  <diagram name="Page-1" id="of7DfHbfdW8zqIFDja_k">
    <mxGraphModel dx="1434" dy="782" grid="1" gridSize="10" guides="1" tooltips="1" connect="1" arrows="1" fold="1" page="1" pageScale="1" pageWidth="1169" pageHeight="827" math="0" shadow="0">
      <root>
        <mxCell id="0" />
        <mxCell id="1" parent="0" />
        <mxCell id="h5lb0Ns4XcM6wDCAX3Z6-1" value="" style="rounded=0;whiteSpace=wrap;html=1;fillColor=#E6E6E6;" vertex="1" parent="1">
          <mxGeometry x="280" y="40" width="160" height="300" as="geometry" />
        </mxCell>
        <mxCell id="h5lb0Ns4XcM6wDCAX3Z6-2" value="" style="ellipse;whiteSpace=wrap;html=1;aspect=fixed;fillColor=#808080;" vertex="1" parent="1">
          <mxGeometry x="300" y="230.09000000000003" width="20" height="20" as="geometry" />
        </mxCell>
        <mxCell id="h5lb0Ns4XcM6wDCAX3Z6-3" value="" style="ellipse;whiteSpace=wrap;html=1;aspect=fixed;fillColor=#808080;" vertex="1" parent="1">
          <mxGeometry x="330" y="160" width="20" height="20" as="geometry" />
        </mxCell>
        <mxCell id="h5lb0Ns4XcM6wDCAX3Z6-4" value="" style="ellipse;whiteSpace=wrap;html=1;aspect=fixed;fillColor=#808080;" vertex="1" parent="1">
          <mxGeometry x="404" y="140" width="20" height="20" as="geometry" />
        </mxCell>
        <mxCell id="h5lb0Ns4XcM6wDCAX3Z6-5" value="" style="rounded=0;whiteSpace=wrap;html=1;fillColor=none;" vertex="1" parent="1">
          <mxGeometry x="40" y="40" width="240" height="300" as="geometry" />
        </mxCell>
        <mxCell id="h5lb0Ns4XcM6wDCAX3Z6-6" value="" style="endArrow=none;html=1;rounded=0;strokeWidth=1;" edge="1" parent="1">
          <mxGeometry width="50" height="50" relative="1" as="geometry">
            <mxPoint x="250" y="70" as="sourcePoint" />
            <mxPoint x="270" y="50" as="targetPoint" />
          </mxGeometry>
        </mxCell>
        <mxCell id="h5lb0Ns4XcM6wDCAX3Z6-7" value="" style="endArrow=none;html=1;rounded=0;strokeWidth=1;" edge="1" parent="1">
          <mxGeometry width="50" height="50" relative="1" as="geometry">
            <mxPoint x="270" y="70" as="sourcePoint" />
            <mxPoint x="250" y="50" as="targetPoint" />
          </mxGeometry>
        </mxCell>
        <mxCell id="h5lb0Ns4XcM6wDCAX3Z6-8" value="Found a total of 10 directions." style="text;html=1;strokeColor=none;fillColor=none;align=left;verticalAlign=middle;whiteSpace=wrap;rounded=0;" vertex="1" parent="1">
          <mxGeometry x="50" y="80" width="220" height="40" as="geometry" />
        </mxCell>
        <mxCell id="h5lb0Ns4XcM6wDCAX3Z6-9" value="Back" style="text;html=1;strokeColor=none;fillColor=none;align=left;verticalAlign=middle;whiteSpace=wrap;rounded=0;spacingLeft=2;" vertex="1" parent="1">
          <mxGeometry x="70" y="50" width="60" height="20" as="geometry" />
        </mxCell>
        <mxCell id="h5lb0Ns4XcM6wDCAX3Z6-10" value="" style="shape=image;html=1;verticalAlign=top;verticalLabelPosition=bottom;labelBackgroundColor=#ffffff;imageAspect=0;aspect=fixed;image=https://cdn4.iconfinder.com/data/icons/ionicons/512/icon-arrow-left-a-128.png;fontColor=#808080;imageBackground=none;" vertex="1" parent="1">
          <mxGeometry x="50" y="50" width="20" height="20" as="geometry" />
        </mxCell>
        <mxCell id="h5lb0Ns4XcM6wDCAX3Z6-11" value="" style="shape=image;html=1;verticalAlign=top;verticalLabelPosition=bottom;labelBackgroundColor=#ffffff;imageAspect=0;aspect=fixed;image=https://cdn3.iconfinder.com/data/icons/arrow-outline-8/32/left-128.png" vertex="1" parent="1">
          <mxGeometry x="50" y="120" width="20" height="20" as="geometry" />
        </mxCell>
        <mxCell id="h5lb0Ns4XcM6wDCAX3Z6-12" value="" style="shape=image;html=1;verticalAlign=top;verticalLabelPosition=bottom;labelBackgroundColor=#ffffff;imageAspect=0;aspect=fixed;image=https://cdn3.iconfinder.com/data/icons/arrow-outline-8/32/right-128.png" vertex="1" parent="1">
          <mxGeometry x="250" y="120" width="20" height="20" as="geometry" />
        </mxCell>
        <mxCell id="h5lb0Ns4XcM6wDCAX3Z6-13" value="2" style="text;html=1;strokeColor=none;fillColor=none;align=center;verticalAlign=middle;whiteSpace=wrap;rounded=0;" vertex="1" parent="1">
          <mxGeometry x="100" y="120" width="30" height="20" as="geometry" />
        </mxCell>
        <mxCell id="h5lb0Ns4XcM6wDCAX3Z6-14" value="3" style="text;html=1;strokeColor=none;fillColor=none;align=center;verticalAlign=middle;whiteSpace=wrap;rounded=0;" vertex="1" parent="1">
          <mxGeometry x="130" y="120" width="30" height="20" as="geometry" />
        </mxCell>
        <mxCell id="h5lb0Ns4XcM6wDCAX3Z6-15" value="10" style="text;html=1;strokeColor=none;fillColor=none;align=center;verticalAlign=middle;whiteSpace=wrap;rounded=0;" vertex="1" parent="1">
          <mxGeometry x="220" y="120" width="30" height="20" as="geometry" />
        </mxCell>
        <mxCell id="h5lb0Ns4XcM6wDCAX3Z6-16" value="4" style="text;html=1;strokeColor=none;fillColor=none;align=center;verticalAlign=middle;whiteSpace=wrap;rounded=0;" vertex="1" parent="1">
          <mxGeometry x="160" y="120" width="30" height="20" as="geometry" />
        </mxCell>
        <mxCell id="h5lb0Ns4XcM6wDCAX3Z6-17" value="..." style="text;html=1;strokeColor=none;fillColor=none;align=center;verticalAlign=middle;whiteSpace=wrap;rounded=0;" vertex="1" parent="1">
          <mxGeometry x="190" y="120" width="30" height="20" as="geometry" />
        </mxCell>
        <mxCell id="h5lb0Ns4XcM6wDCAX3Z6-18" value="" style="ellipse;whiteSpace=wrap;html=1;aspect=fixed;fillColor=#f5f5f5;fontColor=#333333;strokeColor=#666666;" vertex="1" parent="1">
          <mxGeometry x="75" y="120" width="20" height="20" as="geometry" />
        </mxCell>
        <mxCell id="h5lb0Ns4XcM6wDCAX3Z6-19" value="1" style="text;html=1;strokeColor=none;fillColor=none;align=center;verticalAlign=middle;whiteSpace=wrap;rounded=0;fontStyle=1" vertex="1" parent="1">
          <mxGeometry x="70" y="120" width="30" height="20" as="geometry" />
        </mxCell>
        <mxCell id="h5lb0Ns4XcM6wDCAX3Z6-20" value="" style="endArrow=none;html=1;rounded=0;" edge="1" parent="1">
          <mxGeometry width="50" height="50" relative="1" as="geometry">
            <mxPoint x="270" y="240" as="sourcePoint" />
            <mxPoint x="70" y="240" as="targetPoint" />
          </mxGeometry>
        </mxCell>
        <mxCell id="h5lb0Ns4XcM6wDCAX3Z6-21" value="Place&amp;nbsp;1" style="text;html=1;strokeColor=none;fillColor=none;align=left;verticalAlign=middle;whiteSpace=wrap;rounded=0;fontColor=#000000;spacingLeft=2;" vertex="1" parent="1">
          <mxGeometry x="70" y="220" width="200" height="20" as="geometry" />
        </mxCell>
        <mxCell id="h5lb0Ns4XcM6wDCAX3Z6-22" value="" style="endArrow=none;html=1;rounded=0;" edge="1" parent="1">
          <mxGeometry width="50" height="50" relative="1" as="geometry">
            <mxPoint x="270" y="280" as="sourcePoint" />
            <mxPoint x="70" y="280" as="targetPoint" />
          </mxGeometry>
        </mxCell>
        <mxCell id="h5lb0Ns4XcM6wDCAX3Z6-23" value="Place&amp;nbsp;2" style="text;html=1;strokeColor=none;fillColor=none;align=left;verticalAlign=middle;whiteSpace=wrap;rounded=0;fontColor=#000000;spacingLeft=2;" vertex="1" parent="1">
          <mxGeometry x="70" y="260" width="200" height="20" as="geometry" />
        </mxCell>
        <mxCell id="h5lb0Ns4XcM6wDCAX3Z6-24" value="" style="ellipse;whiteSpace=wrap;html=1;aspect=fixed;fillColor=#808080;" vertex="1" parent="1">
          <mxGeometry x="50" y="260" width="20" height="20" as="geometry" />
        </mxCell>
        <mxCell id="h5lb0Ns4XcM6wDCAX3Z6-25" value="" style="endArrow=none;html=1;rounded=0;" edge="1" parent="1">
          <mxGeometry width="50" height="50" relative="1" as="geometry">
            <mxPoint x="270" y="320" as="sourcePoint" />
            <mxPoint x="70" y="320" as="targetPoint" />
          </mxGeometry>
        </mxCell>
        <mxCell id="h5lb0Ns4XcM6wDCAX3Z6-26" value="Place&amp;nbsp;3" style="text;html=1;strokeColor=none;fillColor=none;align=left;verticalAlign=middle;whiteSpace=wrap;rounded=0;fontColor=#000000;spacingLeft=2;" vertex="1" parent="1">
          <mxGeometry x="70" y="300" width="200" height="20" as="geometry" />
        </mxCell>
        <mxCell id="h5lb0Ns4XcM6wDCAX3Z6-27" value="" style="ellipse;whiteSpace=wrap;html=1;aspect=fixed;fillColor=#808080;" vertex="1" parent="1">
          <mxGeometry x="50" y="300" width="20" height="20" as="geometry" />
        </mxCell>
        <mxCell id="h5lb0Ns4XcM6wDCAX3Z6-28" value="" style="ellipse;whiteSpace=wrap;html=1;aspect=fixed;fillColor=#808080;" vertex="1" parent="1">
          <mxGeometry x="50" y="220" width="20" height="20" as="geometry" />
        </mxCell>
        <mxCell id="h5lb0Ns4XcM6wDCAX3Z6-29" value="" style="endArrow=none;html=1;rounded=0;" edge="1" parent="1" source="h5lb0Ns4XcM6wDCAX3Z6-2" target="h5lb0Ns4XcM6wDCAX3Z6-3">
          <mxGeometry width="50" height="50" relative="1" as="geometry">
            <mxPoint x="480" y="230.09000000000003" as="sourcePoint" />
            <mxPoint x="530" y="180.09000000000003" as="targetPoint" />
          </mxGeometry>
        </mxCell>
        <mxCell id="h5lb0Ns4XcM6wDCAX3Z6-30" value="" style="endArrow=none;html=1;rounded=0;" edge="1" parent="1" source="h5lb0Ns4XcM6wDCAX3Z6-3" target="h5lb0Ns4XcM6wDCAX3Z6-4">
          <mxGeometry width="50" height="50" relative="1" as="geometry">
            <mxPoint x="324" y="241" as="sourcePoint" />
            <mxPoint x="346" y="189" as="targetPoint" />
          </mxGeometry>
        </mxCell>
        <mxCell id="h5lb0Ns4XcM6wDCAX3Z6-31" value="Not in your Favorites." style="rounded=0;whiteSpace=wrap;html=1;fillColor=#f5f5f5;strokeColor=#666666;align=left;fontColor=#333333;spacingLeft=2;" vertex="1" parent="1">
          <mxGeometry x="50" y="160" width="220" height="20" as="geometry" />
        </mxCell>
        <mxCell id="h5lb0Ns4XcM6wDCAX3Z6-32" value="" style="shape=image;html=1;verticalAlign=top;verticalLabelPosition=bottom;labelBackgroundColor=#ffffff;imageAspect=0;aspect=fixed;image=https://cdn1.iconfinder.com/data/icons/ionicons-outline-vol-2/512/menu-outline-128.png" vertex="1" parent="1">
          <mxGeometry x="250" y="160" width="20" height="20" as="geometry" />
        </mxCell>
        <mxCell id="h5lb0Ns4XcM6wDCAX3Z6-33" value="Save" style="rounded=0;whiteSpace=wrap;html=1;align=left;spacingLeft=2;fillColor=#FFFFFF;" vertex="1" parent="1">
          <mxGeometry x="250" y="180" width="70" height="20" as="geometry" />
        </mxCell>
        <mxCell id="h5lb0Ns4XcM6wDCAX3Z6-34" value="Walking distance: 3.0 km" style="text;html=1;strokeColor=none;fillColor=none;align=left;verticalAlign=middle;whiteSpace=wrap;rounded=0;" vertex="1" parent="1">
          <mxGeometry x="50" y="180" width="220" height="40" as="geometry" />
        </mxCell>
      </root>
    </mxGraphModel>
  </diagram>
</mxfile>
